PathFileType	4	(x/y/z)	S04_SL_Cal.trc
DataRate	CameraRate	NumFrames	NumMarkers	Units	OrigDataRate	OrigDataStartFrame	OrigNumFrames
240	240	10	51	mm	240	1201	2400
Frame#	Time	Sternum			R.Acromium			L.Acromium			Top.Head			R.ASIS			L.ASIS			R.PSIS			L.PSIS			R.Great.Tro			L.Great.Tro			R.Iliac.Crest			L.Iliac.Crest			V.Sacral			R.Thigh.Upper.Post			R.Thigh.Lower.Ant			R.Thigh.Lower.Post			R.Thigh.Upper.Ant			R.Knee.Lat			R.Knee.Med			R.Shank.Upper.Post			R.Shank.Lower.Ant			R.Shank.Lower.Post			R.Shank.Upper.Ant			R.Ankle.Lat			R.Ankle.Med			R.Heel.Upper			R.Heel.Med			R.Heel.Lat			R.Toe.Lat			R.Toe.Med			R.Toe.Tip			L.Thigh.Upper.Post			L.Thigh.Lower.Ant			L.Thigh.Lower.Post			L.Thigh.Upper.Ant			L.Knee.Lat			L.Knee.Med			L.Shank.Upper.Post			L.Shank.Lower.Ant			L.Shank.Lower.Post			L.Shank.Upper.Ant			L.Ankle.Lat			L.Ankle.Med			L.Heel.Upper			L.Heel.Med			L.Heel.Lat			L.Toe.Lat			L.Toe.Med			L.Toe.Tip			Cervical.Spine			Back			
		X1	Y1	Z1	X2	Y2	Z2	X3	Y3	Z3	X4	Y4	Z4	X5	Y5	Z5	X6	Y6	Z6	X7	Y7	Z7	X8	Y8	Z8	X9	Y9	Z9	X10	Y10	Z10	X11	Y11	Z11	X12	Y12	Z12	X13	Y13	Z13	X14	Y14	Z14	X15	Y15	Z15	X16	Y16	Z16	X17	Y17	Z17	X18	Y18	Z18	X19	Y19	Z19	X20	Y20	Z20	X21	Y21	Z21	X22	Y22	Z22	X23	Y23	Z23	X24	Y24	Z24	X25	Y25	Z25	X26	Y26	Z26	X27	Y27	Z27	X28	Y28	Z28	X29	Y29	Z29	X30	Y30	Z30	X31	Y31	Z31	X32	Y32	Z32	X33	Y33	Z33	X34	Y34	Z34	X35	Y35	Z35	X36	Y36	Z36	X37	Y37	Z37	X38	Y38	Z38	X39	Y39	Z39	X40	Y40	Z40	X41	Y41	Z41	X42	Y42	Z42	X43	Y43	Z43	X44	Y44	Z44	X45	Y45	Z45	X46	Y46	Z46	X47	Y47	Z47	X48	Y48	Z48	X49	Y49	Z49	X50	Y50	Z50	X51	Y51	Z51	

1201	5	353.68	1293.7	277	209.95	1521.6	451.61	196.93	1510.5	112.79	205.2	1838.3	271.53	331.27	1002	416.32	336.05	1014.2	166.51	122.43	1047.4	314.62	131.28	1050.1	232.71	233.8	929.14	480.43	213.87	937.27	100.74	249.55	1097.7	458.04	236.28	1102.2	119.13	103.6	1008.2	273.66	204.52	676.11	492.96	271.28	583.79	466.52	195.2	585.42	486.5	291.02	692.65	477.73	212.4	515.72	479.81	191.17	499.02	354.87	136.05	294.21	495.66	208.42	215.61	465.3	134.96	223.21	484.78	201.68	287.18	483.32	155.66	108.22	476.04	182.61	114.67	389.07	96.93	74.122	419.7	109.19	44.052	390.65	97.697	42.164	454.34	262.18	39.996	519.31	311.51	40.575	403.98	368.6	58.316	458.64	167.63	713.05	96.601	235.75	607.26	90.595	165.3	623.51	99.063	233.27	697.62	82.129	192.38	522.29	96.311	193.88	500.17	218.23	109.75	343.33	81.792	184.45	262.16	74.323	120.53	265.64	83.374	173.01	338.15	73.318	176.06	105.98	82.078	185.37	109.14	173.38	106.08	71.866	122.06	112.77	46.907	155.59	110.56	44.406	94.171	293.75	43.156	53.002	326.45	49.334	168.3	382.93	59.175	118.11	161.71	1555.4	286.98	95.351	1298.2	266.85
1202	5.0042	353.67	1293.7	277.01	209.94	1521.6	451.61	196.93	1510.5	112.78	205.2	1838.3	271.53	331.26	1002	416.32	336.05	1014.2	166.51	122.42	1047.4	314.62	131.27	1050.1	232.71	233.79	929.14	480.43	213.87	937.27	100.74	249.53	1097.7	458.04	236.27	1102.2	119.13	103.6	1008.2	273.66	204.52	676.11	492.97	271.28	583.79	466.52	195.2	585.43	486.5	291.02	692.66	477.73	212.4	515.72	479.81	191.17	499.02	354.87	136.05	294.21	495.66	208.42	215.61	465.3	134.96	223.21	484.77	201.67	287.18	483.31	155.66	108.22	476.04	182.61	114.67	389.07	96.931	74.122	419.7	109.19	44.051	390.65	97.697	42.164	454.34	262.18	39.996	519.31	311.51	40.575	403.98	368.6	58.317	458.64	167.63	713.05	96.599	235.75	607.26	90.597	165.3	623.51	99.062	233.27	697.62	82.132	192.38	522.29	96.313	193.88	500.18	218.23	109.75	343.32	81.795	184.45	262.15	74.324	120.53	265.63	83.374	173.01	338.15	73.319	176.07	105.97	82.081	185.37	109.14	173.38	106.08	71.864	122.06	112.77	46.908	155.59	110.56	44.406	94.171	293.75	43.156	53.002	326.45	49.333	168.3	382.93	59.175	118.11	161.7	1555.4	286.98	95.344	1298.2	266.85
1203	5.0083	353.66	1293.7	277.01	209.93	1521.6	451.61	196.93	1510.5	112.78	205.2	1838.3	271.52	331.25	1002	416.33	336.04	1014.2	166.51	122.41	1047.3	314.62	131.26	1050.1	232.71	233.78	929.14	480.43	213.87	937.27	100.74	249.52	1097.7	458.04	236.27	1102.2	119.12	103.59	1008.2	273.66	204.52	676.11	492.97	271.28	583.79	466.52	195.2	585.43	486.5	291.02	692.66	477.73	212.4	515.73	479.81	191.17	499.02	354.87	136.06	294.22	495.66	208.42	215.61	465.3	134.96	223.21	484.77	201.67	287.18	483.3	155.66	108.22	476.04	182.61	114.67	389.07	96.931	74.122	419.7	109.19	44.051	390.65	97.697	42.165	454.34	262.18	39.997	519.31	311.51	40.575	403.98	368.6	58.317	458.64	167.63	713.05	96.598	235.75	607.26	90.599	165.3	623.51	99.062	233.27	697.62	82.134	192.38	522.29	96.314	193.88	500.18	218.24	109.75	343.32	81.798	184.45	262.15	74.325	120.53	265.63	83.374	173.01	338.15	73.32	176.07	105.97	82.084	185.38	109.14	173.38	106.08	71.863	122.06	112.77	46.908	155.59	110.56	44.406	94.171	293.75	43.156	53.001	326.45	49.333	168.3	382.93	59.175	118.11	161.7	1555.4	286.97	95.337	1298.2	266.84
1204	5.0125	353.65	1293.7	277.01	209.93	1521.6	451.61	196.93	1510.5	112.77	205.19	1838.3	271.51	331.24	1002	416.33	336.04	1014.2	166.51	122.4	1047.3	314.62	131.26	1050.1	232.71	233.77	929.14	480.43	213.86	937.27	100.74	249.5	1097.7	458.04	236.26	1102.2	119.12	103.58	1008.2	273.67	204.52	676.11	492.97	271.28	583.8	466.52	195.2	585.43	486.5	291.01	692.66	477.74	212.4	515.73	479.81	191.18	499.02	354.87	136.06	294.22	495.65	208.42	215.61	465.3	134.95	223.21	484.77	201.67	287.18	483.29	155.66	108.23	476.04	182.61	114.67	389.07	96.932	74.122	419.7	109.19	44.051	390.65	97.698	42.165	454.34	262.18	39.997	519.31	311.51	40.575	403.98	368.6	58.318	458.64	167.63	713.05	96.597	235.75	607.26	90.601	165.3	623.51	99.061	233.27	697.62	82.136	192.39	522.29	96.315	193.88	500.18	218.24	109.75	343.32	81.801	184.45	262.15	74.326	120.53	265.63	83.374	173.01	338.15	73.321	176.07	105.96	82.087	185.38	109.14	173.38	106.08	71.862	122.07	112.77	46.908	155.59	110.56	44.405	94.171	293.75	43.156	53.001	326.45	49.332	168.3	382.93	59.176	118.11	161.7	1555.4	286.97	95.33	1298.2	266.84
1205	5.0167	353.64	1293.7	277.02	209.92	1521.6	451.61	196.94	1510.5	112.76	205.19	1838.3	271.51	331.23	1002	416.33	336.03	1014.2	166.51	122.39	1047.3	314.62	131.25	1050.1	232.71	233.76	929.14	480.43	213.86	937.26	100.74	249.49	1097.7	458.05	236.25	1102.2	119.12	103.57	1008.2	273.67	204.51	676.11	492.97	271.28	583.8	466.52	195.2	585.43	486.5	291.01	692.66	477.74	212.4	515.73	479.81	191.18	499.02	354.87	136.06	294.22	495.65	208.42	215.61	465.3	134.95	223.21	484.77	201.67	287.18	483.28	155.66	108.23	476.04	182.61	114.67	389.07	96.932	74.122	419.7	109.19	44.051	390.65	97.698	42.165	454.34	262.18	39.997	519.31	311.5	40.575	403.98	368.6	58.319	458.64	167.62	713.05	96.595	235.75	607.26	90.603	165.3	623.51	99.061	233.27	697.62	82.138	192.39	522.29	96.317	193.88	500.18	218.24	109.75	343.31	81.803	184.45	262.15	74.327	120.54	265.63	83.373	173.01	338.15	73.322	176.08	105.96	82.091	185.38	109.14	173.38	106.08	71.861	122.07	112.77	46.908	155.59	110.56	44.405	94.17	293.75	43.156	53.001	326.45	49.332	168.3	382.93	59.176	118.12	161.69	1555.4	286.96	95.324	1298.3	266.84
1206	5.0208	353.63	1293.7	277.02	209.91	1521.6	451.61	196.94	1510.5	112.76	205.19	1838.3	271.5	331.22	1002	416.34	336.03	1014.2	166.52	122.39	1047.3	314.62	131.24	1050.1	232.71	233.75	929.14	480.43	213.85	937.26	100.74	249.47	1097.7	458.05	236.24	1102.2	119.12	103.57	1008.2	273.67	204.51	676.11	492.97	271.28	583.8	466.52	195.2	585.43	486.5	291.01	692.66	477.74	212.4	515.73	479.81	191.18	499.02	354.87	136.06	294.22	495.65	208.42	215.61	465.3	134.95	223.21	484.77	201.67	287.17	483.27	155.66	108.23	476.04	182.61	114.67	389.07	96.932	74.123	419.7	109.19	44.05	390.65	97.699	42.166	454.33	262.19	39.997	519.31	311.5	40.575	403.98	368.6	58.319	458.64	167.62	713.05	96.593	235.75	607.26	90.604	165.3	623.51	99.06	233.27	697.62	82.139	192.39	522.29	96.318	193.88	500.18	218.24	109.75	343.31	81.806	184.45	262.15	74.327	120.54	265.63	83.373	173.01	338.15	73.323	176.08	105.96	82.094	185.39	109.14	173.37	106.08	71.86	122.07	112.77	46.908	155.59	110.56	44.405	94.17	293.75	43.156	53.001	326.45	49.332	168.3	382.93	59.177	118.12	161.69	1555.4	286.96	95.317	1298.3	266.84
1207	5.025	353.63	1293.7	277.03	209.91	1521.6	451.61	196.94	1510.5	112.75	205.18	1838.3	271.49	331.22	1002	416.34	336.02	1014.2	166.52	122.37	1047.3	314.62	131.23	1050.1	232.71	233.74	929.14	480.44	213.85	937.26	100.74	249.46	1097.7	458.05	236.23	1102.2	119.12	103.56	1008.2	273.67	204.51	676.11	492.97	271.28	583.8	466.53	195.2	585.43	486.5	291	692.67	477.74	212.4	515.73	479.82	191.18	499.02	354.87	136.06	294.22	495.65	208.43	215.61	465.3	134.95	223.21	484.77	201.67	287.17	483.26	155.66	108.23	476.04	182.61	114.67	389.07	96.932	74.123	419.7	109.19	44.05	390.65	97.699	42.166	454.33	262.19	39.998	519.31	311.5	40.576	403.98	368.6	58.32	458.64	167.62	713.05	96.591	235.75	607.26	90.606	165.3	623.51	99.059	233.27	697.62	82.14	192.39	522.29	96.319	193.89	500.18	218.24	109.75	343.3	81.809	184.45	262.15	74.328	120.54	265.63	83.373	173.01	338.15	73.324	176.09	105.95	82.096	185.39	109.14	173.37	106.08	71.859	122.07	112.77	46.908	155.59	110.56	44.405	94.17	293.75	43.156	53.001	326.45	49.332	168.3	382.93	59.177	118.12	161.69	1555.4	286.95	95.31	1298.3	266.84
1208	5.0292	353.62	1293.7	277.03	209.9	1521.6	451.61	196.94	1510.5	112.75	205.18	1838.3	271.49	331.21	1002	416.34	336.01	1014.2	166.52	122.36	1047.3	314.62	131.22	1050.1	232.71	233.74	929.14	480.44	213.84	937.26	100.74	249.44	1097.7	458.05	236.22	1102.2	119.12	103.55	1008.2	273.67	204.51	676.11	492.97	271.28	583.81	466.53	195.2	585.43	486.5	291	692.67	477.74	212.4	515.73	479.82	191.18	499.03	354.87	136.06	294.22	495.65	208.43	215.61	465.3	134.95	223.22	484.77	201.67	287.17	483.26	155.66	108.23	476.04	182.61	114.67	389.07	96.932	74.123	419.7	109.19	44.05	390.65	97.7	42.167	454.33	262.19	39.998	519.31	311.5	40.576	403.98	368.6	58.321	458.64	167.62	713.05	96.589	235.75	607.27	90.608	165.3	623.51	99.058	233.26	697.62	82.141	192.39	522.29	96.32	193.89	500.18	218.24	109.74	343.3	81.811	184.45	262.15	74.329	120.54	265.63	83.373	173.01	338.15	73.325	176.09	105.95	82.099	185.39	109.14	173.37	106.08	71.858	122.07	112.77	46.907	155.59	110.56	44.405	94.17	293.75	43.157	53.001	326.45	49.332	168.3	382.93	59.178	118.12	161.69	1555.4	286.94	95.304	1298.3	266.84
1209	5.0333	353.61	1293.7	277.03	209.9	1521.6	451.61	196.95	1510.5	112.74	205.17	1838.3	271.48	331.2	1002	416.34	336.01	1014.2	166.52	122.35	1047.3	314.62	131.21	1050.1	232.71	233.73	929.14	480.44	213.83	937.26	100.75	249.43	1097.7	458.05	236.2	1102.1	119.12	103.54	1008.2	273.67	204.5	676.11	492.98	271.27	583.81	466.53	195.2	585.43	486.5	291	692.67	477.75	212.41	515.73	479.82	191.18	499.03	354.87	136.06	294.22	495.65	208.43	215.61	465.3	134.95	223.22	484.77	201.67	287.17	483.25	155.66	108.23	476.04	182.61	114.67	389.07	96.932	74.123	419.7	109.19	44.05	390.65	97.7	42.168	454.33	262.19	39.999	519.31	311.51	40.576	403.98	368.6	58.322	458.64	167.61	713.05	96.587	235.75	607.27	90.609	165.3	623.51	99.057	233.26	697.62	82.141	192.39	522.29	96.322	193.89	500.18	218.24	109.74	343.3	81.813	184.45	262.15	74.33	120.54	265.63	83.372	173.01	338.15	73.325	176.09	105.94	82.101	185.39	109.14	173.37	106.08	71.858	122.07	112.77	46.907	155.59	110.56	44.405	94.17	293.75	43.157	53.002	326.45	49.333	168.3	382.93	59.179	118.12	161.68	1555.4	286.93	95.298	1298.3	266.84
1210	5.0375	353.61	1293.7	277.04	209.89	1521.6	451.6	196.95	1510.5	112.74	205.17	1838.3	271.48	331.19	1002	416.35	336	1014.2	166.52	122.34	1047.3	314.62	131.2	1050.1	232.71	233.72	929.14	480.44	213.83	937.26	100.75	249.41	1097.7	458.05	236.19	1102.1	119.12	103.53	1008.2	273.67	204.5	676.11	492.98	271.27	583.81	466.53	195.2	585.43	486.5	290.99	692.67	477.75	212.41	515.73	479.82	191.19	499.03	354.87	136.06	294.22	495.64	208.43	215.61	465.3	134.95	223.22	484.77	201.67	287.17	483.25	155.66	108.23	476.04	182.61	114.67	389.07	96.932	74.123	419.7	109.19	44.05	390.65	97.701	42.168	454.33	262.19	40	519.31	311.51	40.576	403.98	368.6	58.323	458.64	167.61	713.05	96.585	235.75	607.27	90.61	165.29	623.51	99.056	233.26	697.62	82.141	192.39	522.29	96.323	193.89	500.18	218.24	109.74	343.29	81.815	184.45	262.15	74.33	120.54	265.63	83.372	173.01	338.15	73.325	176.1	105.94	82.103	185.39	109.14	173.37	106.08	71.857	122.07	112.77	46.906	155.59	110.56	44.404	94.17	293.75	43.157	53.002	326.45	49.333	168.3	382.93	59.18	118.12	161.68	1555.4	286.93	95.292	1298.3	266.83
